<svg xmlns="http://www.w3.org/2000/svg" width="20" height="20" viewBox="0 0 20 20">
    <defs>
        <style>.a{fill:none;}.b{fill:currentColor;}</style>
    </defs>
    <g transform="translate(-30 -576)">
        <rect class="a" width="20" height="20" transform="translate(30 576)"/>
        <g transform="translate(32 520.687)">
            <g transform="translate(0 59.013)">
                <path class="b"
                      d="M31.025,328.413a1.368,1.368,0,0,0,.936-.353l-4.533-4.533-.314.226q-.509.375-.826.585a5.087,5.087,0,0,1-.844.429,2.572,2.572,0,0,1-.982.219h-.018a2.571,2.571,0,0,1-.982-.219,5.071,5.071,0,0,1-.844-.429q-.317-.21-.826-.585l-.313-.227-4.534,4.534a1.368,1.368,0,0,0,.936.353Z"
                      transform="translate(-16.454 -315.841)"/>
                <path class="b" d="M.9,199.332a4.734,4.734,0,0,1-.9-.777v6.9l4-4Q2.8,200.619.9,199.332Z"
                      transform="translate(0 -194.501)"/>
                <path class="b"
                      d="M416.41,199.332q-1.824,1.235-3.1,2.126l3.994,3.994v-6.9A4.928,4.928,0,0,1,416.41,199.332Z"
                      transform="translate(-401.303 -194.501)"/>
                <path class="b"
                      d="M14.577,59.013H1.434a1.275,1.275,0,0,0-1.058.464,1.8,1.8,0,0,0-.371,1.161A2.086,2.086,0,0,0,.5,61.857a4.43,4.43,0,0,0,1.045,1.031q.3.214,1.83,1.272c.55.381,1.027.713,1.438,1l.9.63.133.095.246.177q.29.21.482.339t.464.29a2.709,2.709,0,0,0,.513.241,1.421,1.421,0,0,0,.446.08h.018a1.421,1.421,0,0,0,.446-.08,2.7,2.7,0,0,0,.513-.241q.272-.161.464-.29t.482-.339l.246-.177.134-.1.9-.628,3.275-2.274a4.247,4.247,0,0,0,1.089-1.1,2.362,2.362,0,0,0,.437-1.348,1.44,1.44,0,0,0-1.429-1.429Z"
                      transform="translate(-0.006 -59.013)"/>
            </g>
        </g>
    </g>
</svg>
