<svg xmlns="http://www.w3.org/2000/svg" width="22" height="22" viewBox="0 0 22 22">
    <g id="Group_96246" data-name="Group 96246" transform="translate(-1199)">
        <rect id="Rectangle_44772" data-name="Rectangle 44772" width="22" height="22" transform="translate(1199)"
              fill="none"/>
        <path id="Subtraction_3" data-name="Subtraction 3"
              d="M15.127,17.286H2.16A2.162,2.162,0,0,1,0,15.126V2.161A2.164,2.164,0,0,1,2.16,0H15.127a2.163,2.163,0,0,1,2.159,2.161V15.126A2.161,2.161,0,0,1,15.127,17.286ZM10.8,8.817a1.33,1.33,0,0,1,1.3,1.3v4.582h2.592V9.767a3.066,3.066,0,0,0-3.025-3.026,2.8,2.8,0,0,0-2.16,1.209V6.915H6.914v7.779H9.509V10.112A1.329,1.329,0,0,1,10.8,8.817Zm-8.212-1.9v7.779H5.186V6.915Zm1.3-4.582a1.549,1.549,0,1,0,1.1.454A1.552,1.552,0,0,0,3.889,2.333Z"
              transform="translate(1201.357 2.356)" fill="current"/>
    </g>
</svg>
