<svg width="150px" height="70px" version="1.1" viewBox="230 240 80 120" xmlns="http://www.w3.org/2000/svg">
    <!-- <text x="50" y="150">Hello, I'm </text> -->
    <g fill-opacity="0" stroke="#000" stroke-linecap="round" stroke-linejoin="round" stroke-width="4.2" >
        <g transform="translate(80, 0) scale(2, 2)">
            <path class="name"
                d="m148.78 148.05c-6.3296 5.2636-19.423 20.733-9.1946-8.7282 8.1151-23.316 12.303-12.417 4.9305-1.4658-2.9805 4.427-8.9948 12.06-8.9948 12.06s-9.661 12.459-8.8615 2.0655c1.1017-13.22 0.80209-4.9388-2.1987-0.73291-3.0008 4.2059-9.4535 10.298-9.2612 2.3986 0.3035-4.0634 3.2875-7.0495 5.9299-8.3951 3.5751-1.6788 6.552 1.4999 3.3314-0.9994-2.3388-1.2774-15.462 8.6376-14.925 2.9982 0.53301-5.5967-0.0666-1.9988-0.86617-0.59965-0.79953 1.3992-8.039 13.256-9.0614 3.9977-0.57084-5.1694-1.2326-3.8977-4.0643-0.4664-6.5806 7.9741-9.5013 7.858-7.6622 2.9316 4.7431-12.862-2.1692-3.9122-6.6628 0.33313-6.0745 5.636-15.472 11.294-17.09 17.188-0.78581 2.8622 1.1653 6.0712 4.2475 1.5332s2.4486-4.8964 8.4451-18.455-0.1114-4.5939-6.8293 0.2332c-6.1604 4.4264-14.426 9.7815-17.09 16.357-0.9639 2.345 0.57875 6.7826 4.1975 1.5991 2.7537-3.9445 8.7282-19.522 8.7282-19.522 5.73-14.991 0.13326-3.398-7.8621 2.6651-4.6019 3.4898-1.5991-6.5295-1.5991-6.5295 3.931-11.527-5.1604 5.2528-8.1952 7.6622-2.5005 1.9852-5.1994 0.85623-4.0643-3.7978 1.1351-4.654 9.3567-14.347-0.39976-4.3974"
            />
            <path id="dot1" d="m81 137.21c-1.1082 0.77578-1.1305 1.6157-0.56634 1.6324 1.0323 0.0305 1.6746-2.4082 0.56634-1.6324z" />
            <path id="dot2" d="m70 137.21c-1.1082 0.77578-1.1305 1.6157-0.56634 1.6324 1.0323 0.0305 1.6746-2.4082 0.56634-1.6324z" />
        </g>
    </g>
    </svg>